<svg width="40" height="36" viewBox="0 0 40 36" fill="none" xmlns="http://www.w3.org/2000/svg">
<rect x="0.5" y="0.5" width="39" height="35" rx="11.5" fill="#052F35"/>
<rect x="0.5" y="0.5" width="39" height="35" rx="11.5" stroke="#0E464F"/>
<path d="M16.9999 9.5V26.5M10.4639 15.344C10.2159 15.344 9.9889 15.142 9.9999 14.879C10.0669 13.337 10.2549 12.333 10.7799 11.539C11.0794 11.0865 11.4549 10.6893 11.8899 10.365C13.0549 9.5 14.6999 9.5 17.9919 9.5H22.0059C25.2979 9.5 26.9429 9.5 28.1099 10.365C28.5409 10.685 28.9169 11.082 29.2189 11.539C29.7439 12.333 29.9319 13.337 29.9989 14.879C30.0099 15.142 29.7829 15.344 29.5339 15.344C28.1479 15.344 27.0239 16.533 27.0239 18C27.0239 19.467 28.1479 20.656 29.5339 20.656C29.7829 20.656 30.0099 20.858 29.9989 21.122C29.9319 22.663 29.7439 23.667 29.2189 24.462C28.9193 24.9141 28.5438 25.311 28.1089 25.635C26.9429 26.5 25.2979 26.5 22.0059 26.5H17.9929C14.7009 26.5 13.0559 26.5 11.8889 25.635C11.4543 25.3106 11.0791 24.9134 10.7799 24.461C10.2549 23.667 10.0669 22.663 9.9999 21.121C9.9889 20.858 10.2159 20.656 10.4639 20.656C11.8499 20.656 12.9739 19.467 12.9739 18C12.9739 16.533 11.8499 15.344 10.4639 15.344Z" stroke="white" stroke-width="1.5" stroke-linecap="round" stroke-linejoin="round"/>
</svg>
